<mxfile host="65bd71144e">
    <diagram id="eXdiT0qU7e2jt3zTWWwx" name="Page-1">
        <mxGraphModel dx="1589" dy="949" grid="1" gridSize="10" guides="1" tooltips="1" connect="1" arrows="1" fold="1" page="1" pageScale="1" pageWidth="850" pageHeight="1100" math="0" shadow="0">
            <root>
                <mxCell id="0"/>
                <mxCell id="1" parent="0"/>
                <mxCell id="30" value="" style="group" vertex="1" connectable="0" parent="1">
                    <mxGeometry x="240" y="330" width="200" height="110" as="geometry"/>
                </mxCell>
                <mxCell id="31" value="&lt;font face=&quot;Courier New&quot;&gt;Data Processor&lt;br&gt;Service&lt;/font&gt;" style="rounded=1;whiteSpace=wrap;html=1;" vertex="1" parent="30">
                    <mxGeometry x="40" y="30" width="160" height="80" as="geometry"/>
                </mxCell>
                <mxCell id="32" value="" style="shape=image;verticalLabelPosition=bottom;labelBackgroundColor=#ffffff;verticalAlign=top;aspect=fixed;imageAspect=0;image=https://knative.dev/docs/images/logo/rgb/knative-logo-rgb.png;" vertex="1" parent="30">
                    <mxGeometry width="63.14" height="51" as="geometry"/>
                </mxCell>
                <mxCell id="33" value="" style="group" vertex="1" connectable="0" parent="1">
                    <mxGeometry y="330" width="200" height="110" as="geometry"/>
                </mxCell>
                <mxCell id="34" value="&lt;font face=&quot;Courier New&quot;&gt;Knative Broker&lt;/font&gt;" style="rounded=1;whiteSpace=wrap;html=1;" vertex="1" parent="33">
                    <mxGeometry x="40" y="30" width="160" height="80" as="geometry"/>
                </mxCell>
                <mxCell id="35" value="" style="shape=image;verticalLabelPosition=bottom;labelBackgroundColor=#ffffff;verticalAlign=top;aspect=fixed;imageAspect=0;image=https://knative.dev/docs/images/logo/rgb/knative-logo-rgb.png;" vertex="1" parent="33">
                    <mxGeometry width="63.14" height="51" as="geometry"/>
                </mxCell>
                <mxCell id="36" value="" style="group" vertex="1" connectable="0" parent="1">
                    <mxGeometry x="480" y="330" width="200" height="110" as="geometry"/>
                </mxCell>
                <mxCell id="37" value="&lt;font face=&quot;Courier New&quot;&gt;Event Record&lt;br&gt;Service&lt;br&gt;&lt;/font&gt;" style="rounded=1;whiteSpace=wrap;html=1;" vertex="1" parent="36">
                    <mxGeometry x="40" y="30" width="160" height="80" as="geometry"/>
                </mxCell>
                <mxCell id="38" value="" style="shape=image;verticalLabelPosition=bottom;labelBackgroundColor=#ffffff;verticalAlign=top;aspect=fixed;imageAspect=0;image=https://knative.dev/docs/images/logo/rgb/knative-logo-rgb.png;" vertex="1" parent="36">
                    <mxGeometry width="63.14" height="51" as="geometry"/>
                </mxCell>
                <mxCell id="39" value="" style="endArrow=none;html=1;entryX=0.5;entryY=1;entryDx=0;entryDy=0;startArrow=none;" edge="1" parent="1" source="54" target="31">
                    <mxGeometry width="50" height="50" relative="1" as="geometry">
                        <mxPoint x="360" y="960" as="sourcePoint"/>
                        <mxPoint x="450" y="560" as="targetPoint"/>
                    </mxGeometry>
                </mxCell>
                <mxCell id="40" value="" style="endArrow=none;html=1;entryX=0.5;entryY=1;entryDx=0;entryDy=0;startArrow=none;" edge="1" parent="1" source="57" target="34">
                    <mxGeometry width="50" height="50" relative="1" as="geometry">
                        <mxPoint x="120" y="960" as="sourcePoint"/>
                        <mxPoint x="120" y="450" as="targetPoint"/>
                    </mxGeometry>
                </mxCell>
                <mxCell id="41" value="" style="endArrow=none;html=1;entryX=0.5;entryY=1;entryDx=0;entryDy=0;startArrow=none;" edge="1" parent="1" source="64" target="37">
                    <mxGeometry width="50" height="50" relative="1" as="geometry">
                        <mxPoint x="600" y="960" as="sourcePoint"/>
                        <mxPoint x="600" y="450" as="targetPoint"/>
                    </mxGeometry>
                </mxCell>
                <mxCell id="42" style="edgeStyle=none;html=1;entryX=-0.025;entryY=0.116;entryDx=0;entryDy=0;entryPerimeter=0;" edge="1" parent="1" source="44" target="54">
                    <mxGeometry relative="1" as="geometry"/>
                </mxCell>
                <mxCell id="43" value="&lt;font face=&quot;Courier New&quot; style=&quot;font-size: 14px&quot;&gt;notification&lt;/font&gt;" style="edgeLabel;html=1;align=center;verticalAlign=middle;resizable=0;points=[];" vertex="1" connectable="0" parent="42">
                    <mxGeometry x="-0.2275" y="3" relative="1" as="geometry">
                        <mxPoint x="23" y="3" as="offset"/>
                    </mxGeometry>
                </mxCell>
                <mxCell id="44" value="" style="rounded=0;whiteSpace=wrap;html=1;" vertex="1" parent="1">
                    <mxGeometry x="100" y="480" width="40" height="100" as="geometry"/>
                </mxCell>
                <mxCell id="45" style="edgeStyle=none;html=1;entryX=0;entryY=0.25;entryDx=0;entryDy=0;fontFamily=Courier New;fontSize=12;exitX=1.032;exitY=0.332;exitDx=0;exitDy=0;exitPerimeter=0;" edge="1" parent="1" source="54" target="62">
                    <mxGeometry relative="1" as="geometry"/>
                </mxCell>
                <mxCell id="46" style="edgeStyle=none;html=1;entryX=1;entryY=0.5;entryDx=0;entryDy=0;fontFamily=Courier New;fontSize=18;" edge="1" parent="1" target="57">
                    <mxGeometry relative="1" as="geometry">
                        <mxPoint x="330" y="840" as="sourcePoint"/>
                    </mxGeometry>
                </mxCell>
                <mxCell id="47" value="&lt;font style=&quot;font-size: 14px&quot;&gt;delete&lt;/font&gt;" style="edgeLabel;html=1;align=center;verticalAlign=middle;resizable=0;points=[];fontSize=18;fontFamily=Courier New;" vertex="1" connectable="0" parent="46">
                    <mxGeometry x="0.1616" y="3" relative="1" as="geometry">
                        <mxPoint as="offset"/>
                    </mxGeometry>
                </mxCell>
                <mxCell id="48" style="edgeStyle=none;html=1;entryX=0;entryY=0.5;entryDx=0;entryDy=0;fontFamily=Courier New;fontSize=14;" edge="1" parent="1" target="64">
                    <mxGeometry relative="1" as="geometry">
                        <mxPoint x="390" y="840" as="sourcePoint"/>
                    </mxGeometry>
                </mxCell>
                <mxCell id="49" value="add new records" style="edgeLabel;html=1;align=center;verticalAlign=middle;resizable=0;points=[];fontSize=14;fontFamily=Courier New;" vertex="1" connectable="0" parent="48">
                    <mxGeometry x="-0.3536" y="4" relative="1" as="geometry">
                        <mxPoint x="29" y="4" as="offset"/>
                    </mxGeometry>
                </mxCell>
                <mxCell id="50" style="edgeStyle=none;html=1;entryX=0;entryY=0.25;entryDx=0;entryDy=0;fontFamily=Courier New;fontSize=14;" edge="1" parent="1" target="56">
                    <mxGeometry relative="1" as="geometry">
                        <mxPoint x="390" y="505" as="sourcePoint"/>
                    </mxGeometry>
                </mxCell>
                <mxCell id="51" value="should process?" style="edgeLabel;html=1;align=center;verticalAlign=middle;resizable=0;points=[];fontSize=14;fontFamily=Courier New;" vertex="1" connectable="0" parent="50">
                    <mxGeometry x="-0.2916" y="-1" relative="1" as="geometry">
                        <mxPoint x="23" y="-1" as="offset"/>
                    </mxGeometry>
                </mxCell>
                <mxCell id="52" style="edgeStyle=none;html=1;entryX=0;entryY=0.75;entryDx=0;entryDy=0;fontFamily=Courier New;fontSize=14;" edge="1" parent="1" target="56">
                    <mxGeometry relative="1" as="geometry">
                        <mxPoint x="390" y="555" as="sourcePoint"/>
                    </mxGeometry>
                </mxCell>
                <mxCell id="53" value="get record" style="edgeLabel;html=1;align=center;verticalAlign=middle;resizable=0;points=[];fontSize=14;fontFamily=Courier New;" vertex="1" connectable="0" parent="52">
                    <mxGeometry x="-0.4774" y="-1" relative="1" as="geometry">
                        <mxPoint x="41" as="offset"/>
                    </mxGeometry>
                </mxCell>
                <mxCell id="54" value="" style="rounded=0;whiteSpace=wrap;html=1;" vertex="1" parent="1">
                    <mxGeometry x="340" y="480" width="40" height="430" as="geometry"/>
                </mxCell>
                <mxCell id="55" value="" style="endArrow=none;html=1;entryX=0.5;entryY=1;entryDx=0;entryDy=0;" edge="1" parent="1" target="54">
                    <mxGeometry width="50" height="50" relative="1" as="geometry">
                        <mxPoint x="360" y="960" as="sourcePoint"/>
                        <mxPoint x="360" y="440" as="targetPoint"/>
                    </mxGeometry>
                </mxCell>
                <mxCell id="56" value="" style="rounded=0;whiteSpace=wrap;html=1;" vertex="1" parent="1">
                    <mxGeometry x="580" y="480" width="40" height="100" as="geometry"/>
                </mxCell>
                <mxCell id="57" value="" style="rounded=0;whiteSpace=wrap;html=1;" vertex="1" parent="1">
                    <mxGeometry x="100" y="790" width="40" height="100" as="geometry"/>
                </mxCell>
                <mxCell id="58" value="" style="endArrow=none;html=1;entryX=0.5;entryY=1;entryDx=0;entryDy=0;" edge="1" parent="1" target="57">
                    <mxGeometry width="50" height="50" relative="1" as="geometry">
                        <mxPoint x="120" y="960" as="sourcePoint"/>
                        <mxPoint x="120" y="440" as="targetPoint"/>
                    </mxGeometry>
                </mxCell>
                <mxCell id="59" value="&lt;font style=&quot;font-size: 12px&quot;&gt;Backend&lt;/font&gt;" style="rounded=1;whiteSpace=wrap;html=1;fontFamily=Courier New;fontSize=18;" vertex="1" parent="1">
                    <mxGeometry x="760" y="360" width="160" height="80" as="geometry"/>
                </mxCell>
                <mxCell id="60" value="" style="endArrow=none;html=1;startArrow=none;entryX=0.5;entryY=1;entryDx=0;entryDy=0;" edge="1" parent="1" source="62" target="59">
                    <mxGeometry width="50" height="50" relative="1" as="geometry">
                        <mxPoint x="839.5" y="960" as="sourcePoint"/>
                        <mxPoint x="840" y="450" as="targetPoint"/>
                    </mxGeometry>
                </mxCell>
                <mxCell id="61" style="edgeStyle=none;html=1;entryX=1.046;entryY=0.433;entryDx=0;entryDy=0;entryPerimeter=0;fontFamily=Courier New;fontSize=12;exitX=-0.025;exitY=0.64;exitDx=0;exitDy=0;exitPerimeter=0;" edge="1" parent="1" source="62" target="54">
                    <mxGeometry relative="1" as="geometry"/>
                </mxCell>
                <mxCell id="62" value="" style="rounded=0;whiteSpace=wrap;html=1;" vertex="1" parent="1">
                    <mxGeometry x="820" y="600" width="40" height="100" as="geometry"/>
                </mxCell>
                <mxCell id="63" value="" style="endArrow=none;html=1;startArrow=none;entryX=0.5;entryY=1;entryDx=0;entryDy=0;" edge="1" parent="1" target="62">
                    <mxGeometry width="50" height="50" relative="1" as="geometry">
                        <mxPoint x="839.5" y="960" as="sourcePoint"/>
                        <mxPoint x="840" y="440" as="targetPoint"/>
                    </mxGeometry>
                </mxCell>
                <mxCell id="64" value="" style="rounded=0;whiteSpace=wrap;html=1;" vertex="1" parent="1">
                    <mxGeometry x="580" y="790" width="40" height="100" as="geometry"/>
                </mxCell>
                <mxCell id="65" value="" style="endArrow=none;html=1;entryX=0.5;entryY=1;entryDx=0;entryDy=0;startArrow=none;" edge="1" parent="1" target="64">
                    <mxGeometry width="50" height="50" relative="1" as="geometry">
                        <mxPoint x="600" y="960" as="sourcePoint"/>
                        <mxPoint x="600" y="440" as="targetPoint"/>
                    </mxGeometry>
                </mxCell>
            </root>
        </mxGraphModel>
    </diagram>
</mxfile>